<svg width="65.000000" height="35.000000" viewBox="0 0 65 35" fill="none" xmlns="http://www.w3.org/2000/svg" xmlns:xlink="http://www.w3.org/1999/xlink">
	<desc>
			Created with Pixso.
	</desc>
	<defs/>
	<path id="DSI" d="M-0.43 -0.13L-0.43 34L10.8 34Q14.03 33.98 16.81 32.86Q17.85 32.44 18.83 31.87Q20.5 30.9 21.82 29.58Q23.34 28.05 24.41 26.06Q24.53 25.83 24.65 25.59Q26.39 22.05 26.39 17.66L26.39 16.09Q26.37 12.11 24.87 8.8Q24.62 8.24 24.33 7.71Q23.16 5.54 21.45 3.94Q20.22 2.78 18.7 1.92Q18.05 1.55 17.37 1.25Q14.28 -0.13 10.57 -0.13L-0.43 -0.13ZM7.8 27.67L7.8 6.22L10.57 6.22Q13.03 6.22 14.69 7.37Q15.48 7.92 16.1 8.73Q18 11.24 18 16.18L18 17.66Q18 22.63 16.1 25.15Q15.42 26.05 14.53 26.63Q12.93 27.67 10.66 27.67L7.8 27.67Z" fill="#85171A" fill-opacity="1.000000" fill-rule="evenodd"/>
	<path id="DSI" d="M45.29 22.96Q45.81 23.78 45.81 24.92Q45.81 25.87 45.39 26.57Q45.1 27.04 44.62 27.4Q43.44 28.28 41.4 28.28Q38.21 28.28 36.79 26.98Q36.75 26.93 36.7 26.89Q35.38 25.58 35.38 22.93L27.13 22.93Q27.13 25.49 28.1 27.59Q28.41 28.27 28.83 28.9Q28.84 28.91 28.85 28.93Q30.55 31.5 33.89 32.98Q37.25 34.46 41.4 34.46Q47.28 34.46 50.66 31.91Q52.11 30.81 52.93 29.36Q54.03 27.43 54.03 24.88Q54.03 22.8 53.27 21.05Q51.98 18.09 48.5 16.09Q46.23 14.78 42.69 13.64Q39.15 12.5 37.74 11.44Q36.56 10.54 36.37 9.47Q36.34 9.27 36.34 9.06Q36.34 8.44 36.56 7.91Q36.87 7.15 37.61 6.58Q38.89 5.61 41.1 5.61Q43.1 5.61 44.35 6.59Q44.45 6.67 44.55 6.76Q44.83 7.01 45.05 7.31Q45.83 8.37 45.83 10L54.03 10Q54.03 7.82 53.25 5.99Q52.91 5.19 52.42 4.45Q52.09 3.96 51.7 3.51Q50.2 1.76 47.88 0.71Q44.96 -0.6 41.28 -0.6Q37.51 -0.6 34.49 0.61Q31.46 1.82 29.81 3.98Q29.14 4.86 28.75 5.84Q28.16 7.3 28.16 8.99Q28.16 10.57 28.67 11.97Q30 15.59 34.79 17.94Q36.83 18.95 40.04 20.03Q43.25 21.1 44.53 22.11Q45 22.48 45.29 22.96Z" fill="#DC2025" fill-opacity="1.000000" fill-rule="evenodd"/>
	<path id="DSI" d="M64.62 34L56.41 34L56.41 -0.13L64.62 -0.13L64.62 34Z" fill="#FEBA08" fill-opacity="1.000000" fill-rule="evenodd"/>
</svg>
