<svg width="100.000000" height="100.000000" viewBox="0 0 100 100" fill="none" xmlns="http://www.w3.org/2000/svg" xmlns:xlink="http://www.w3.org/1999/xlink">
	<desc>
			Created with Pixso.
	</desc>
	<defs>
		<clipPath id="clip1_320">
			<rect id="verified 1" width="100.000000" height="100.000000" fill="white" fill-opacity="0"/>
		</clipPath>
	</defs>
	<rect id="verified 1" width="100.000000" height="100.000000" fill="#FFFFFF" fill-opacity="0"/>
	<g clip-path="url(#clip1_320)">
		<path id="Vector" d="M88.42 23.26C88.42 42.48 98.37 55.67 98.37 64.93C98.37 74.19 93.05 93.63 50.46 93.63C7.87 93.63 1.61 67.48 1.61 57.29C1.61 9.61 88.42 -10.76 88.42 23.26Z" fill="#EFEFEF" fill-opacity="1.000000" fill-rule="nonzero"/>
		<path id="Vector" d="M9.71 16.66C8.79 16.66 7.9 16.36 7.16 15.78C6.28 15.1 5.72 14.11 5.58 13.01C5.44 11.91 5.74 10.82 6.43 9.94C7.11 9.06 8.1 8.5 9.2 8.36C10.3 8.22 11.4 8.52 12.28 9.21C13.16 9.89 13.71 10.88 13.85 11.98C13.99 13.08 13.69 14.18 13.01 15.05C12.32 15.93 11.34 16.49 10.23 16.63C10.06 16.65 9.88 16.66 9.71 16.66ZM9.72 11.11C9.66 11.11 9.6 11.11 9.54 11.12C8.79 11.21 8.24 11.91 8.34 12.67C8.43 13.43 9.13 13.96 9.89 13.87C10.65 13.78 11.19 13.08 11.1 12.32C11.01 11.62 10.41 11.11 9.72 11.11Z" fill="#A4AFC1" fill-opacity="1.000000" fill-rule="nonzero"/>
		<path id="Vector" d="M75.69 75.69L24.3 75.69C21.23 75.69 18.75 73.2 18.75 70.13L18.75 28.47L81.25 28.47L81.25 70.13C81.25 73.2 78.76 75.69 75.69 75.69Z" fill="#F3F3F1" fill-opacity="1.000000" fill-rule="nonzero"/>
		<path id="Vector" d="M81.25 28.47L18.75 28.47L18.75 24.3C18.75 21.23 21.23 18.75 24.3 18.75L75.69 18.75C78.76 18.75 81.25 21.23 81.25 24.3L81.25 28.47Z" fill="#EE4248" fill-opacity="1.000000" fill-rule="nonzero"/>
		<path id="Vector" d="M81.25 65.27C81.25 74.09 74.09 81.25 65.27 81.25C56.45 81.25 49.3 74.09 49.3 65.27C49.3 56.45 56.45 49.3 65.27 49.3C74.09 49.3 81.25 56.45 81.25 65.27Z" fill="#EE4248" fill-opacity="1.000000" fill-rule="evenodd"/>
		<path id="Vector" d="M70.13 38.19L29.86 38.19L29.86 50.69L70.16 50.69L70.13 38.19Z" fill="#EE4248" fill-opacity="1.000000" fill-rule="nonzero"/>
		<path id="Vector" d="M30.55 18.75L24.3 18.75C21.23 18.75 18.75 21.23 18.75 24.3L18.75 28.47L25 28.47L25 24.3C25 21.23 27.48 18.75 30.55 18.75Z" fill="#EE4248" fill-opacity="1.000000" fill-rule="nonzero"/>
		<path id="Vector" d="M55.55 65.27C55.55 57.52 61.07 51.06 68.4 49.61C67.39 49.41 66.34 49.3 65.27 49.3C56.45 49.3 49.3 56.45 49.3 65.27C49.3 74.1 56.45 81.25 65.27 81.25C66.34 81.25 67.39 81.14 68.4 80.93C61.07 79.48 55.55 73.02 55.55 65.27Z" fill="#EE4248" fill-opacity="1.000000" fill-rule="nonzero"/>
		<path id="Vector" d="M29.86 38.19L36.11 38.19L36.11 50.69L29.86 50.69L29.86 38.19Z" fill="#EE4248" fill-opacity="1.000000" fill-rule="nonzero"/>
		<path id="Vector" d="M25 70.13L25 28.47L18.75 28.47L18.75 70.13C18.75 73.2 21.23 75.69 24.3 75.69L30.55 75.69C27.48 75.69 25 73.2 25 70.13Z" fill="#D5DBE1" fill-opacity="1.000000" fill-rule="nonzero"/>
		<path id="Vector" d="M65.27 83.33C55.32 83.33 47.22 75.23 47.22 65.27C47.22 55.32 55.32 47.22 65.27 47.22C75.23 47.22 83.33 55.32 83.33 65.27C83.33 75.23 75.23 83.33 65.27 83.33ZM65.27 51.38C57.61 51.38 51.38 57.61 51.38 65.27C51.38 72.93 57.61 79.16 65.27 79.16C72.93 79.16 79.16 72.93 79.16 65.27C79.16 57.61 72.93 51.38 65.27 51.38Z" fill="#000000" fill-opacity="1.000000" fill-rule="nonzero"/>
		<path id="Vector" d="M62.5 72.91C61.94 72.91 61.41 72.69 61.02 72.3L55.47 66.75L58.41 63.8L62.4 67.78L70.65 58.35L73.79 61.09L64.06 72.2C63.68 72.63 63.14 72.89 62.56 72.91C62.54 72.91 62.52 72.91 62.5 72.91Z" fill="#000000" fill-opacity="1.000000" fill-rule="nonzero"/>
		<path id="Vector" d="M45.86 52.77L29.86 52.77C28.71 52.77 27.77 51.84 27.77 50.69L27.77 38.19C27.77 37.04 28.71 36.11 29.86 36.11L70.13 36.11C71.28 36.11 72.22 37.04 72.22 38.19L72.22 41.47L68.05 41.47L68.05 40.27L31.94 40.27L31.94 48.61L45.86 48.61L45.86 52.77Z" fill="#000000" fill-opacity="1.000000" fill-rule="nonzero"/>
		<path id="Vector" d="M27.91 56.91L43.88 56.91L43.88 61.08L27.91 61.08L27.91 56.91Z" fill="#000000" fill-opacity="1.000000" fill-rule="nonzero"/>
		<path id="Vector" d="M27.91 65.25L43.16 65.25L43.16 69.41L27.91 69.41L27.91 65.25Z" fill="#000000" fill-opacity="1.000000" fill-rule="nonzero"/>
		<path id="Vector" d="M43.3 77.77L24.3 77.77C20.09 77.77 16.66 74.35 16.66 70.13L16.66 24.3C16.66 20.09 20.09 16.66 24.3 16.66L75.69 16.66C79.9 16.66 83.33 20.09 83.33 24.3L83.33 47L79.16 47L79.16 24.3C79.16 22.39 77.6 20.83 75.69 20.83L24.3 20.83C22.39 20.83 20.83 22.39 20.83 24.3L20.83 70.13C20.83 72.05 22.39 73.61 24.3 73.61L43.3 73.61L43.3 77.77Z" fill="#000000" fill-opacity="1.000000" fill-rule="nonzero"/>
		<path id="Vector" d="M18.75 26.38L81.25 26.38L81.25 30.55L18.75 30.55L18.75 26.38Z" fill="#000000" fill-opacity="1.000000" fill-rule="nonzero"/>
	</g>
</svg>
