<svg width="100.000000" height="100.000000" viewBox="0 0 100 100" fill="none" xmlns="http://www.w3.org/2000/svg" xmlns:xlink="http://www.w3.org/1999/xlink">
	<desc>
			Created with Pixso.
	</desc>
	<defs>
		<clipPath id="clip1_376">
			<rect id="product-description 1" width="100.000000" height="100.000000" fill="white" fill-opacity="0"/>
		</clipPath>
	</defs>
	<rect id="product-description 1" width="100.000000" height="100.000000" fill="#FFFFFF" fill-opacity="0"/>
	<g clip-path="url(#clip1_376)">
		<path id="Vector" d="M74.94 10.87C55.73 11.23 42.36 1.52 33.1 1.69C23.84 1.87 4.5 7.55 5.3 50.14C6.09 92.73 32.36 98.48 42.55 98.3C90.22 97.4 108.96 10.23 74.94 10.87Z" fill="#EFEFEF" fill-opacity="1.000000" fill-rule="nonzero"/>
		<path id="Vector" d="M18.34 9.46L22.27 5.54L24.24 7.5L20.31 11.43L18.34 9.46Z" fill="#A4AFC1" fill-opacity="1.000000" fill-rule="nonzero"/>
		<path id="Vector" d="M7.05 20.76L10.98 16.83L12.94 18.79L9.01 22.72L7.05 20.76Z" fill="#A4AFC1" fill-opacity="1.000000" fill-rule="nonzero"/>
		<path id="Vector" d="M7.05 7.01L9.02 5.05L12.95 8.98L10.98 10.94L7.05 7.01Z" fill="#A4AFC1" fill-opacity="1.000000" fill-rule="nonzero"/>
		<path id="Vector" d="M92.3 42.89C90 42.89 88.13 41.02 88.13 38.73C88.13 36.43 90 34.56 92.3 34.56C94.6 34.56 96.46 36.43 96.46 38.73C96.46 41.02 94.6 42.89 92.3 42.89ZM92.3 37.34C91.53 37.34 90.91 37.96 90.91 38.73C90.91 39.49 91.53 40.11 92.3 40.11C93.06 40.11 93.69 39.49 93.69 38.73C93.69 37.96 93.06 37.34 92.3 37.34Z" fill="#A4AFC1" fill-opacity="1.000000" fill-rule="nonzero"/>
		<path id="Vector" d="M78.47 31.25L21.52 31.25C19.99 31.25 18.75 30 18.75 28.47L18.75 21.52C18.75 19.99 19.99 18.75 21.52 18.75L78.47 18.75C80 18.75 81.25 19.99 81.25 21.52L81.25 28.47C81.25 30 80 31.25 78.47 31.25Z" fill="#EE4248" fill-opacity="1.000000" fill-rule="nonzero"/>
		<path id="Vector" d="M75 56.25C71.54 56.25 68.75 53.45 68.75 50C68.75 46.54 71.54 43.75 75 43.75C78.45 43.75 81.25 46.54 81.25 50C81.25 53.45 78.45 56.25 75 56.25Z" fill="#EE4248" fill-opacity="1.000000" fill-rule="nonzero"/>
		<path id="Vector" d="M75 81.25C71.54 81.25 68.75 78.45 68.75 75C68.75 71.54 71.54 68.75 75 68.75C78.45 68.75 81.25 71.54 81.25 75C81.25 78.45 78.45 81.25 75 81.25Z" fill="#EE4248" fill-opacity="1.000000" fill-rule="nonzero"/>
		<path id="Vector" d="M25 28.47L25 21.52C25 19.99 26.24 18.75 27.77 18.75L21.52 18.75C19.99 18.75 18.75 19.99 18.75 21.52L18.75 28.47C18.75 30 19.99 31.25 21.52 31.25L27.77 31.25C26.24 31.25 25 30 25 28.47Z" fill="#D5DBE1" fill-opacity="1.000000" fill-rule="nonzero"/>
		<path id="Vector" d="M75 50C75 47.69 76.26 45.7 78.12 44.61C77.2 44.08 76.14 43.75 75 43.75C71.54 43.75 68.75 46.54 68.75 50C68.75 53.45 71.54 56.25 75 56.25C76.14 56.25 77.2 55.91 78.12 55.38C76.26 54.3 75 52.3 75 50Z" fill="#EE4248" fill-opacity="1.000000" fill-rule="nonzero"/>
		<path id="Vector" d="M75 75C75 72.69 76.26 70.69 78.12 69.61C77.2 69.08 76.14 68.75 75 68.75C71.54 68.75 68.75 71.54 68.75 75C68.75 78.45 71.54 81.25 75 81.25C76.14 81.25 77.2 80.91 78.12 80.38C76.26 79.3 75 77.3 75 75Z" fill="#EE4248" fill-opacity="1.000000" fill-rule="nonzero"/>
		<path id="Vector" d="M78.47 33.33L21.52 33.33C18.84 33.33 16.66 31.15 16.66 28.47L16.66 21.52C16.66 18.84 18.84 16.66 21.52 16.66L78.47 16.66C81.15 16.66 83.33 18.84 83.33 21.52L83.33 28.47C83.33 31.15 81.15 33.33 78.47 33.33ZM21.52 20.83C21.14 20.83 20.83 21.14 20.83 21.52L20.83 28.47C20.83 28.85 21.14 29.16 21.52 29.16L78.47 29.16C78.85 29.16 79.16 28.85 79.16 28.47L79.16 21.52C79.16 21.14 78.85 20.83 78.47 20.83L21.52 20.83Z" fill="#000000" fill-opacity="1.000000" fill-rule="nonzero"/>
		<path id="Vector" d="M18.75 44.44L59.02 44.44L59.02 48.61L18.75 48.61L18.75 44.44Z" fill="#000000" fill-opacity="1.000000" fill-rule="nonzero"/>
		<path id="Vector" d="M18.75 52.77L59.02 52.77L59.02 56.94L18.75 56.94L18.75 52.77Z" fill="#000000" fill-opacity="1.000000" fill-rule="nonzero"/>
		<path id="Vector" d="M18.75 69.44L59.02 69.44L59.02 73.61L18.75 73.61L18.75 69.44Z" fill="#000000" fill-opacity="1.000000" fill-rule="nonzero"/>
		<path id="Vector" d="M18.75 77.77L59.02 77.77L59.02 81.94L18.75 81.94L18.75 77.77Z" fill="#000000" fill-opacity="1.000000" fill-rule="nonzero"/>
		<path id="Vector" d="M75 58.33C70.4 58.33 66.66 54.59 66.66 50C66.66 45.4 70.4 41.66 75 41.66C79.59 41.66 83.33 45.4 83.33 50C83.33 54.59 79.59 58.33 75 58.33ZM75 45.83C72.7 45.83 70.83 47.7 70.83 50C70.83 52.29 72.7 54.16 75 54.16C77.29 54.16 79.16 52.29 79.16 50C79.16 47.7 77.29 45.83 75 45.83Z" fill="#000000" fill-opacity="1.000000" fill-rule="nonzero"/>
		<path id="Vector" d="M75 83.33C70.4 83.33 66.66 79.59 66.66 75C66.66 70.4 70.4 66.66 75 66.66C79.59 66.66 83.33 70.4 83.33 75C83.33 79.59 79.59 83.33 75 83.33ZM75 70.83C72.7 70.83 70.83 72.7 70.83 75C70.83 77.29 72.7 79.16 75 79.16C77.29 79.16 79.16 77.29 79.16 75C79.16 72.7 77.29 70.83 75 70.83Z" fill="#000000" fill-opacity="1.000000" fill-rule="nonzero"/>
	</g>
</svg>
