<svg width="100.000000" height="100.000000" viewBox="0 0 100 100" fill="none" xmlns="http://www.w3.org/2000/svg" xmlns:xlink="http://www.w3.org/1999/xlink">
	<desc>
			Created with Pixso.
	</desc>
	<defs>
		<clipPath id="clip1_344">
			<rect id="cogwheel 1" width="100.000000" height="100.000000" fill="white" fill-opacity="0"/>
		</clipPath>
	</defs>
	<rect id="cogwheel 1" width="100.000000" height="100.000000" fill="#FFFFFF" fill-opacity="0"/>
	<g clip-path="url(#clip1_344)">
		<path id="Vector" d="M23.26 88.42C42.48 88.42 55.67 98.37 64.93 98.37C74.19 98.37 93.63 93.05 93.63 50.46C93.63 7.87 67.48 1.61 57.29 1.61C9.61 1.61 -10.76 88.42 23.26 88.42Z" fill="#EFEFEF" fill-opacity="1.000000" fill-rule="nonzero"/>
		<path id="Vector" d="M88.8 21.34L90.76 19.37L94.69 23.3L92.72 25.26L88.8 21.34Z" fill="#A4AFC1" fill-opacity="1.000000" fill-rule="nonzero"/>
		<path id="Vector" d="M77.5 10.04L79.47 8.08L83.4 12.01L81.43 13.97L77.5 10.04Z" fill="#A4AFC1" fill-opacity="1.000000" fill-rule="nonzero"/>
		<path id="Vector" d="M88.8 12.5L92.73 8.57L94.69 10.53L90.76 14.46L88.8 12.5Z" fill="#A4AFC1" fill-opacity="1.000000" fill-rule="nonzero"/>
		<path id="Vector" d="M54.86 72.91C54.86 72.91 55.54 77.81 58.97 81.25L59.02 81.25L40.97 81.25C44.44 77.77 45.08 72.91 45.08 72.91L54.86 72.91Z" fill="#EE4248" fill-opacity="1.000000" fill-rule="nonzero"/>
		<path id="Vector" d="M78.47 29.86C80 29.86 81.25 31.11 81.25 32.63L81.25 63.19L18.75 63.19L18.75 32.63C18.75 31.11 20 29.86 21.52 29.86L78.47 29.86Z" fill="#F3F3F1" fill-opacity="1.000000" fill-rule="nonzero"/>
		<path id="Vector" d="M21.52 72.91L78.47 72.91C80 72.91 81.25 71.67 81.25 70.13L81.25 63.19L18.75 63.19L18.75 70.13C18.75 71.67 19.99 72.91 21.52 72.91Z" fill="#EE4248" fill-opacity="1.000000" fill-rule="nonzero"/>
		<path id="Vector" d="M77.08 31.94C77.08 36.16 73.66 39.58 69.44 39.58C65.22 39.58 61.8 36.16 61.8 31.94C61.8 27.72 65.22 24.3 69.44 24.3C73.66 24.3 77.08 27.72 77.08 31.94Z" fill="#EE4248" fill-opacity="1.000000" fill-rule="evenodd"/>
		<path id="Vector" d="M32.78 56.25C29.63 56.25 27.08 53.83 27.08 50.83C27.08 47.83 29.63 45.41 32.78 45.41L32.89 45.41C33.5 41.32 37.19 38.19 41.66 38.19C45.21 38.19 48.28 40.16 49.69 43.03C53.35 43.22 56.25 46.1 56.25 49.63C56.25 53.28 53.13 56.25 49.27 56.25L32.78 56.25Z" fill="#EE4248" fill-opacity="1.000000" fill-rule="nonzero"/>
		<path id="Vector" d="M45.08 72.91C45.08 72.91 44.44 77.77 40.97 81.25L47.22 81.25C50.69 77.77 51.33 72.91 51.33 72.91L45.08 72.91Z" fill="#EE4248" fill-opacity="1.000000" fill-rule="nonzero"/>
		<path id="Vector" d="M25 70.13L25 63.19L18.75 63.19L18.75 70.13C18.75 71.67 19.99 72.91 21.52 72.91L27.77 72.91C26.24 72.91 25 71.67 25 70.13Z" fill="#EE4248" fill-opacity="1.000000" fill-rule="nonzero"/>
		<path id="Vector" d="M68.05 31.94C68.05 28.84 69.91 26.18 72.56 24.98C71.61 24.55 70.56 24.3 69.44 24.3C65.22 24.3 61.8 27.72 61.8 31.94C61.8 36.16 65.22 39.58 69.44 39.58C70.56 39.58 71.61 39.33 72.56 38.9C69.91 37.7 68.05 35.04 68.05 31.94Z" fill="#EE4248" fill-opacity="1.000000" fill-rule="nonzero"/>
		<path id="Vector" d="M33.33 50.83C33.33 47.83 35.88 45.41 39.03 45.41L39.14 45.41C39.6 42.34 41.79 39.81 44.76 38.74C43.79 38.4 42.75 38.19 41.66 38.19C37.18 38.19 33.5 41.32 32.89 45.41L32.78 45.41C29.63 45.41 27.08 47.83 27.08 50.83C27.08 53.83 29.63 56.25 32.78 56.25L39.03 56.25C35.88 56.25 33.33 53.83 33.33 50.83Z" fill="#EE4248" fill-opacity="1.000000" fill-rule="nonzero"/>
		<path id="Vector" d="M27.77 29.86L21.52 29.86C20 29.86 18.75 31.11 18.75 32.63L18.75 63.19L25 63.19L25 32.63C25 31.11 26.25 29.86 27.77 29.86Z" fill="#D5DBE1" fill-opacity="1.000000" fill-rule="nonzero"/>
		<path id="Vector" d="M78.47 75L21.52 75C18.84 75 16.66 72.81 16.66 70.13L16.66 32.63C16.66 29.95 18.84 27.77 21.52 27.77L50 27.77L50 31.94L21.52 31.94C21.15 31.94 20.83 32.26 20.83 32.63L20.83 70.13C20.83 70.51 21.15 70.83 21.52 70.83L78.47 70.83C78.85 70.83 79.16 70.51 79.16 70.13L79.16 47.22L83.33 47.22L83.33 70.13C83.33 72.81 81.15 75 78.47 75Z" fill="#000000" fill-opacity="1.000000" fill-rule="nonzero"/>
		<path id="Vector" d="M18.75 61.11L81.25 61.11L81.25 65.27L18.75 65.27L18.75 61.11Z" fill="#000000" fill-opacity="1.000000" fill-rule="nonzero"/>
		<path id="Vector" d="M59.02 83.33L40.97 83.33C40.12 83.33 39.36 82.82 39.04 82.04C38.72 81.26 38.9 80.37 39.49 79.77C42.4 76.87 43.01 72.68 43.02 72.63L47.14 73.18C47.13 73.35 46.74 76.15 45.08 79.16L54.86 79.16C53.22 76.16 52.82 73.36 52.79 73.2L56.92 72.62C56.93 72.66 57.54 76.67 60.21 79.53C60.75 79.91 61.11 80.54 61.11 81.25C61.11 82.4 60.17 83.33 59.02 83.33Z" fill="#000000" fill-opacity="1.000000" fill-rule="nonzero"/>
		<path id="Vector" d="M69.44 41.66C64.08 41.66 59.72 37.3 59.72 31.94C59.72 26.58 64.08 22.22 69.44 22.22C74.8 22.22 79.16 26.58 79.16 31.94C79.16 37.3 74.8 41.66 69.44 41.66ZM69.44 26.38C66.38 26.38 63.88 28.88 63.88 31.94C63.88 35 66.38 37.49 69.44 37.49C72.5 37.49 74.99 35 74.99 31.94C74.99 28.88 72.5 26.38 69.44 26.38Z" fill="#000000" fill-opacity="1.000000" fill-rule="nonzero"/>
		<path id="Vector" d="M67.36 37.5L71.52 37.5L71.52 47.22L67.36 47.22L67.36 37.5Z" fill="#000000" fill-opacity="1.000000" fill-rule="nonzero"/>
		<path id="Vector" d="M67.36 16.66L71.52 16.66L71.52 26.38L67.36 26.38L67.36 16.66Z" fill="#000000" fill-opacity="1.000000" fill-rule="nonzero"/>
		<path id="Vector" d="M73.26 27.25L82.12 22.5L84.09 26.17L75.22 30.92L73.26 27.25Z" fill="#000000" fill-opacity="1.000000" fill-rule="nonzero"/>
		<path id="Vector" d="M54.84 37.65L63.71 32.9L65.67 36.57L56.81 41.32L54.84 37.65Z" fill="#000000" fill-opacity="1.000000" fill-rule="nonzero"/>
		<path id="Vector" d="M54.85 26.21L56.81 22.54L65.68 27.29L63.72 30.96L54.85 26.21Z" fill="#000000" fill-opacity="1.000000" fill-rule="nonzero"/>
		<path id="Vector" d="M73.27 36.6L75.24 32.93L84.11 37.68L82.14 41.35L73.27 36.6Z" fill="#000000" fill-opacity="1.000000" fill-rule="nonzero"/>
		<path id="Vector" d="M49.27 58.33L32.77 58.33C28.48 58.33 25 54.96 25 50.83C25 47.21 27.67 44.18 31.21 43.48C32.61 39.18 36.84 36.11 41.66 36.11C44.73 36.11 47.68 37.34 49.73 39.51L46.71 42.38C45.44 41.04 43.6 40.27 41.66 40.27C38.3 40.27 35.41 42.61 34.95 45.72C34.79 46.74 33.91 47.5 32.88 47.5C30.78 47.5 29.16 48.99 29.16 50.83C29.16 52.67 30.78 54.16 32.77 54.16L49.27 54.16C51.97 54.16 54.16 52.13 54.16 49.63C54.16 49.26 54.12 48.96 54.05 48.67L58.05 47.54C58.24 48.19 58.33 48.88 58.33 49.63C58.33 54.43 54.27 58.33 49.27 58.33Z" fill="#000000" fill-opacity="1.000000" fill-rule="nonzero"/>
	</g>
</svg>
